<?xml version="1.0" standalone="no"?><!-- Generator: Gravit.io --><svg xmlns="http://www.w3.org/2000/svg" xmlns:xlink="http://www.w3.org/1999/xlink" style="isolation:isolate" viewBox="0 0 122 122" width="122" height="122"><defs><clipPath id="_clipPath_Y7mfgeIUVIHIETAT0yqdrfD9Gkkt3cQa"><rect width="122" height="122"/></clipPath></defs><g clip-path="url(#_clipPath_Y7mfgeIUVIHIETAT0yqdrfD9Gkkt3cQa)"><g id="Group"><g id="Group"><path d=" M 79.03 7.511 C 77.13 1.811 71.03 -1.289 65.33 0.511 C 59.63 2.411 56.53 8.511 58.33 14.211 L 86.43 100.611 C 88.33 105.911 94.13 108.911 99.63 107.311 C 105.43 105.611 108.93 99.511 107.03 93.911 C 107.03 93.711 79.03 7.511 79.03 7.511 Z " fill="rgb(236,179,45)"/><path d=" M 35.53 21.611 C 33.63 15.911 27.53 12.811 21.83 14.611 C 16.13 16.511 13.03 22.611 14.83 28.311 L 42.93 114.711 C 44.83 120.011 50.63 123.011 56.13 121.411 C 61.93 119.711 65.43 113.611 63.53 108.011 C 63.53 107.811 35.53 21.611 35.53 21.611 Z " fill="rgb(99,193,160)"/><path d=" M 114.43 79.011 C 120.13 77.111 123.23 71.011 121.43 65.311 C 119.53 59.611 113.43 56.511 107.73 58.311 L 21.23 86.511 C 15.93 88.411 12.93 94.211 14.53 99.711 C 16.23 105.511 22.33 109.011 27.93 107.111 C 28.13 107.111 114.43 79.011 114.43 79.011 Z " fill="rgb(224,26,89)"/><path d=" M 39.23 103.511 C 44.83 101.711 52.13 99.311 59.93 96.811 C 58.13 91.211 55.73 83.911 53.23 76.111 L 32.53 82.811 L 39.23 103.511 Z " fill="rgb(51,20,51)"/><path d=" M 82.83 89.311 C 90.63 86.811 97.93 84.411 103.53 82.611 C 101.73 77.011 99.33 69.711 96.83 61.911 L 76.13 68.611 L 82.83 89.311 Z " fill="rgb(214,32,39)"/><path d=" M 100.23 35.511 C 105.93 33.611 109.03 27.511 107.23 21.811 C 105.33 16.111 99.23 13.011 93.53 14.811 L 7.13 42.911 C 1.83 44.811 -1.17 50.611 0.43 56.111 C 2.13 61.911 8.23 65.411 13.83 63.511 C 14.03 63.511 100.23 35.511 100.23 35.511 Z " fill="rgb(137,211,223)"/><path d=" M 25.13 59.911 C 30.73 58.111 38.03 55.711 45.83 53.211 C 43.33 45.411 40.93 38.111 39.13 32.511 L 18.43 39.211 L 25.13 59.911 Z " fill="rgb(37,139,116)"/><path d=" M 68.63 45.811 C 76.43 43.311 83.73 40.911 89.33 39.111 C 86.83 31.311 84.43 24.011 82.63 18.411 L 61.93 25.111 L 68.63 45.811 Z " fill="rgb(129,156,60)"/></g></g></g></svg>